HIERARCHY
ROOT Pelvis
{
	OFFSET 0.000000 0.000000 0.000000
	CHANNELS 6 Xposition Yposition Zposition Xrotation Yrotation Zrotation
	JOINT LeftUpLeg_virtual
	{
		OFFSET 0.000000 0.000000 0.000000
		CHANNELS 3 Xrotation Yrotation Zrotation
		JOINT LeftUpLeg
		{
			OFFSET 18.735201 -5.666702 -4.541200
			CHANNELS 3 Xrotation Yrotation Zrotation
			JOINT LeftLeg
			{
				OFFSET -0.021200 -31.938179 0.493100
				CHANNELS 3 Xrotation Yrotation Zrotation
				JOINT LeftFoot
				{
					OFFSET 0.021200 -31.938179 -4.336299
					CHANNELS 3 Xrotation Yrotation Zrotation
					JOINT LeftToeBase
					{
						OFFSET 0.943001 -26.722000 15.023500
						CHANNELS 3 Xrotation Yrotation Zrotation
						End Site
						{
							OFFSET 0 0 0
						}
					}
				}
			}
		}
	}
	JOINT RightUpLeg_virtual
	{
		OFFSET 0.000000 0.000000 0.000000
		CHANNELS 3 Xrotation Yrotation Zrotation
		JOINT RightUpLeg
		{
			OFFSET -18.735201 -5.666702 -4.541200
			CHANNELS 3 Xrotation Yrotation Zrotation
			JOINT RightLeg
			{
				OFFSET 0.018946 -31.938133 0.493100
				CHANNELS 3 Xrotation Yrotation Zrotation
				JOINT RightFoot
				{
					OFFSET -0.018946 -31.938126 -4.336299
					CHANNELS 3 Xrotation Yrotation Zrotation
					JOINT RightToeBase
					{
						OFFSET -0.943001 -26.722004 15.023500
						CHANNELS 3 Xrotation Yrotation Zrotation
						End Site
						{
							OFFSET 0 0 0
						}
					}
				}
			}
		}
	}
	JOINT Hips_virtual
	{
		OFFSET 0.000000 0.000000 0.000000
		CHANNELS 3 Xrotation Yrotation Zrotation
		JOINT Hips
		{
			OFFSET -0.000000 -0.000000 -0.000000
			CHANNELS 3 Xrotation Yrotation Zrotation
			JOINT Spine
			{
				OFFSET 0.000000 10.199997 -0.299500
				CHANNELS 3 Xrotation Yrotation Zrotation
				JOINT Spine1
				{
					OFFSET 0.000000 11.900002 -1.516600
					CHANNELS 3 Xrotation Yrotation Zrotation
					JOINT Spine2
					{
						OFFSET 0.000000 13.600006 -2.842500
						CHANNELS 3 Xrotation Yrotation Zrotation
						JOINT Neck_virtual
						{
							OFFSET 0.000000 0.000000 0.000000
							CHANNELS 3 Xrotation Yrotation Zrotation
							JOINT Neck
							{
								OFFSET 0.000000 9.624100 -2.890100
								CHANNELS 3 Xrotation Yrotation Zrotation
								JOINT Head
								{
									OFFSET 0.000000 14.068802 -1.351900
									CHANNELS 3 Xrotation Yrotation Zrotation
									End Site
									{
										OFFSET 0 0 0
									}
								}
							}
						}
						JOINT LeftShoulder_virtual
						{
							OFFSET 0.000000 0.000000 0.000000
							CHANNELS 3 Xrotation Yrotation Zrotation
							JOINT LeftShoulder
							{
								OFFSET 15.263000 10.923401 -0.547700
								CHANNELS 3 Xrotation Yrotation Zrotation
								JOINT LeftArm
								{
									OFFSET 25.438599 -2.830597 -13.032500
									CHANNELS 3 Xrotation Yrotation Zrotation
									JOINT LeftForeArm
									{
										OFFSET 29.960503 0.000000 0.000000
										CHANNELS 3 Xrotation Yrotation Zrotation
										JOINT LeftHand
										{
											OFFSET 27.849251 0.000000 0.000000
											CHANNELS 3 Xrotation Yrotation Zrotation
											End Site
											{
												OFFSET 0 0 0
											}
										}
									}
								}
							}
						}
						JOINT RightShoulder_virtual
						{
							OFFSET 0.000000 0.000000 0.000000
							CHANNELS 3 Xrotation Yrotation Zrotation
							JOINT RightShoulder
							{
								OFFSET -15.263000 10.923401 -0.547700
								CHANNELS 3 Xrotation Yrotation Zrotation
								JOINT RightArm
								{
									OFFSET -25.438599 -2.830597 -13.032500
									CHANNELS 3 Xrotation Yrotation Zrotation
									JOINT RightForeArm
									{
										OFFSET -29.960503 0.000000 0.000000
										CHANNELS 3 Xrotation Yrotation Zrotation
										JOINT RightHand
										{
											OFFSET -27.849251 0.000000 0.000000
											CHANNELS 3 Xrotation Yrotation Zrotation
											End Site
											{
												OFFSET 0 0 0
											}
										}
									}
								}
							}
						}
					}
				}
			}
		}
	}
}
MOTION
Frames: 9
Frame Time: 0.03333333
-7.872310 93.179176 10.884453 0.000000 0.000000 0.000000 -5.323063 1.781529 -1.191654 -17.759277 5.169177 14.904221 27.456630 1.111296 1.096808 1.129257 -8.865919 -5.183766 0.000000 0.000000 0.000000 -6.006089 2.737305 -1.089433 6.086083 -7.723033 6.367072 14.284234 -12.665052 -5.927158 -3.377365 -12.310712 4.594633 0.000000 0.000000 0.000000 -5.732617 2.377214 -0.979013 -0.826348 0.113706 0.013844 3.427778 1.269132 4.863902 1.359399 0.753408 3.102244 0.000000 0.000000 0.000000 1.235902 1.461817 2.700817 6.425337 -0.515620 -0.129101 0.000000 0.000000 0.000000 1.940611 1.449697 3.135999 0.602542 -19.631197 -12.293371 6.911206 0.387658 -70.427009 -9.036246 -5.545294 -8.211200 0.000000 0.000000 0.000000 2.290813 1.761852 2.175377 4.162660 14.901774 11.993337 28.096321 4.550859 58.044409 -8.990130 21.551096 13.652643 0.000000 0.000000 0.000000 
-7.764673 93.318642 10.975256 0.000000 0.000000 0.000000 -4.900539 1.066529 -1.275540 -17.718662 5.390478 14.922568 27.074563 1.339777 1.018176 1.223707 -8.030521 -5.258040 0.000000 0.000000 0.000000 -5.553567 1.993788 -1.175250 5.388230 -7.662760 6.113731 14.101020 -12.633114 -5.979076 -2.753829 -11.736262 4.766659 0.000000 0.000000 0.000000 -5.276557 1.617556 -1.069319 -0.817368 0.106049 0.003923 3.345290 1.030107 4.960040 1.330277 0.542758 3.106591 0.000000 0.000000 0.000000 1.143655 1.263138 2.703017 6.315215 -0.482018 -0.037913 0.000000 0.000000 0.000000 1.788234 1.237680 3.091902 0.548393 -19.712595 -12.444487 7.386620 1.215422 -70.530268 -9.239216 -5.033169 -8.159094 0.000000 0.000000 0.000000 2.096086 1.535389 2.207085 4.547010 13.656429 11.720016 29.118783 5.531707 56.551538 -8.958115 20.280293 14.054438 0.000000 0.000000 0.000000 
-7.661217 93.453995 11.020466 0.000000 0.000000 0.000000 -4.500496 0.108701 -1.387798 -17.635304 5.663729 15.024552 26.725436 1.570828 0.962710 1.238828 -7.084890 -5.327273 0.000000 0.000000 0.000000 -5.118186 1.013935 -1.285301 4.576273 -7.588086 5.861665 13.945952 -12.578294 -5.994810 -2.091824 -10.964538 4.982023 0.000000 0.000000 0.000000 -4.843570 0.662213 -1.192555 -0.809774 0.099150 -0.006968 3.307635 0.847233 5.083755 1.301358 0.345281 3.142330 0.000000 0.000000 0.000000 1.058066 1.071605 2.717766 6.198928 -0.443500 0.051362 0.000000 0.000000 0.000000 1.614784 1.042858 3.086763 0.467470 -19.784242 -12.639436 7.828405 2.010308 -70.728952 -9.388308 -4.582396 -8.151363 0.000000 0.000000 0.000000 1.859430 1.314907 2.266323 4.866706 12.650055 11.805200 28.957731 6.053477 55.316787 -8.761497 18.763636 14.213785 0.000000 0.000000 0.000000 
-7.563750 93.578888 11.022802 0.000000 0.000000 0.000000 -4.121753 -1.016696 -1.525070 -17.536309 5.951279 15.203301 26.427044 1.770000 0.922258 1.118321 -6.092119 -5.437359 0.000000 0.000000 0.000000 -4.707709 -0.134186 -1.417767 3.687649 -7.507721 5.629800 13.816257 -12.514893 -5.975177 -1.470525 -10.059614 5.176491 0.000000 0.000000 0.000000 -4.440303 -0.414324 -1.337980 -0.802476 0.099141 -0.012260 3.310071 0.734681 5.222166 1.287552 0.175917 3.197076 0.000000 0.000000 0.000000 0.978886 0.898572 2.731053 6.075778 -0.403760 0.138745 0.000000 0.000000 0.000000 1.444160 0.875055 3.114490 0.375595 -19.865286 -12.808239 8.278016 2.639522 -70.991149 -9.483937 -4.272642 -8.197439 0.000000 0.000000 0.000000 1.626804 1.117171 2.338607 5.125622 11.860070 12.112289 27.793109 6.320471 54.435365 -8.430304 17.298166 14.138323 0.000000 0.000000 0.000000 
-7.475920 93.686020 11.003920 0.000000 0.000000 0.000000 -3.771067 -2.235026 -1.685140 -17.437053 6.222061 15.447467 26.227100 1.935305 0.880839 0.846541 -5.089347 -5.583024 0.000000 0.000000 0.000000 -4.325730 -1.369943 -1.573137 2.782141 -7.439218 5.430219 13.722011 -12.449461 -5.921937 -0.951575 -9.085318 5.294413 0.000000 0.000000 0.000000 -4.068463 -1.540762 -1.494663 -0.796413 0.105430 -0.011545 3.331367 0.694202 5.358050 1.304738 0.040082 3.260745 0.000000 0.000000 0.000000 0.905956 0.749735 2.740107 5.941839 -0.367515 0.223334 0.000000 0.000000 0.000000 1.290544 0.737736 3.155441 0.279591 -19.984561 -12.911634 8.742223 3.015645 -71.249344 -9.525883 -4.137402 -8.290905 0.000000 0.000000 0.000000 1.437142 0.950752 2.407047 5.343642 11.268807 12.430222 26.014708 6.703916 53.846954 -7.991189 16.103455 13.866390 0.000000 0.000000 0.000000 
-7.402703 93.783951 10.959873 0.000000 0.000000 0.000000 -3.444711 -3.465492 -1.862736 -17.341239 6.458318 15.742408 26.093428 2.066076 0.819850 0.457809 -4.110576 -5.753711 0.000000 0.000000 0.000000 -3.981482 -2.606605 -1.746518 1.924977 -7.379256 5.262762 13.617810 -12.384182 -5.852535 -0.532014 -8.093284 5.321762 0.000000 0.000000 0.000000 -3.730120 -2.659740 -1.662019 -0.789985 0.112120 -0.008621 3.368867 0.692990 5.481374 1.355455 -0.069494 3.328957 0.000000 0.000000 0.000000 0.846667 0.623975 2.751001 5.798644 -0.338130 0.306764 0.000000 0.000000 0.000000 1.168186 0.623699 3.195993 0.173651 -20.167781 -12.949911 9.191374 3.154158 -71.440070 -9.518504 -4.188455 -8.418025 0.000000 0.000000 0.000000 1.286104 0.814823 2.466115 5.542503 10.823055 12.613451 24.046980 7.570057 53.400724 -7.495291 15.450465 13.471302 0.000000 0.000000 0.000000 
-7.341652 93.877014 10.901348 0.000000 0.000000 0.000000 -3.141480 -4.627102 -2.046688 -17.241957 6.656807 16.063078 25.966813 2.177426 0.732550 0.049150 -3.162022 -5.905912 0.000000 0.000000 0.000000 -3.673451 -3.777578 -1.928904 1.162712 -7.338955 5.119664 13.468398 -12.308740 -5.780246 -0.193226 -7.110067 5.279111 0.000000 0.000000 0.000000 -3.415353 -3.731628 -1.837375 -0.785107 0.115224 -0.007763 3.405827 0.700662 5.589516 1.418681 -0.167145 3.396083 0.000000 0.000000 0.000000 0.803185 0.520512 2.767665 5.650582 -0.319712 0.390380 0.000000 0.000000 0.000000 1.081726 0.526403 3.225234 0.059018 -20.439039 -12.934893 9.558121 3.061243 -71.534149 -9.468181 -4.389661 -8.557238 0.000000 0.000000 0.000000 1.170075 0.701046 2.510611 5.734303 10.490512 12.613932 22.266666 9.070974 53.001233 -6.956936 15.406460 13.013577 0.000000 0.000000 0.000000 
-7.297591 93.967072 10.840588 0.000000 0.000000 0.000000 -2.853488 -5.676280 -2.226180 -17.118259 6.832785 16.366902 25.767888 2.291465 0.619658 -0.304330 -2.247623 -6.005143 0.000000 0.000000 0.000000 -3.393324 -4.830958 -2.107605 0.512507 -7.321529 4.996140 13.258159 -12.216370 -5.713320 0.078168 -6.151180 5.190423 0.000000 0.000000 0.000000 -3.124215 -4.731215 -2.007921 -0.782025 0.111280 -0.011280 3.428252 0.703727 5.681045 1.485419 -0.253857 3.460881 0.000000 0.000000 0.000000 0.780600 0.438860 2.796277 5.502332 -0.311135 0.471166 0.000000 0.000000 0.000000 1.009954 0.443928 3.240066 -0.067627 -20.779782 -12.903122 9.765772 2.746607 -71.544579 -9.367872 -4.643273 -8.680154 0.000000 0.000000 0.000000 1.077740 0.607853 2.545533 5.917580 10.255993 12.459366 20.728149 11.171472 52.700367 -6.375231 15.777225 12.502669 0.000000 0.000000 0.000000 
-7.259664 94.052002 10.771299 0.000000 0.000000 0.000000 -2.575800 -6.590808 -2.389274 -16.965527 7.003640 16.619093 25.450885 2.412130 0.487269 -0.553177 -1.377751 -6.031013 0.000000 0.000000 0.000000 -3.138600 -5.747737 -2.269492 -0.019223 -7.327643 4.881897 12.976863 -12.112295 -5.653158 0.313309 -5.240692 5.068723 0.000000 0.000000 0.000000 -2.851147 -5.640757 -2.164537 -0.782238 0.103462 -0.017250 3.446673 0.702573 5.755875 1.555167 -0.324090 3.519943 0.000000 0.000000 0.000000 0.769804 0.382249 2.832480 5.361255 -0.310616 0.545264 0.000000 0.000000 0.000000 0.943115 0.379989 3.246786 -0.206884 -21.177447 -12.872330 9.737117 2.234347 -71.478790 -9.229280 -4.886964 -8.767622 0.000000 0.000000 0.000000 1.016904 0.540553 2.579091 6.080619 10.111269 12.227660 19.327497 13.698961 52.517820 -5.769724 16.373831 11.958769 0.000000 0.000000 0.000000 
